<?xml version="1.0" standalone="no"?>
<!DOCTYPE svg PUBLIC "-//W3C//DTD SVG 20010904//EN"
 "http://www.w3.org/TR/2001/REC-SVG-20010904/DTD/svg10.dtd">
<svg version="1.0" xmlns="http://www.w3.org/2000/svg"
 width="330.000000pt" height="330.000000pt" viewBox="0 0 330.000000 330.000000"
 preserveAspectRatio="xMidYMid meet">
<metadata>
Created by potrace 1.11, written by Peter Selinger 2001-2013
</metadata>
<g transform="translate(0.000000,330.000000) scale(0.100000,-0.100000)"
fill="#000000" stroke="none">
<path d="M304 3262 c-75 -49 -157 -138 -195 -213 -61 -121 -59 -79 -59 -1299
0 -1225 -2 -1177 61 -1303 42 -82 163 -202 242 -240 120 -58 95 -57 1297 -57
1213 0 1179 -1 1301 61 82 41 193 152 237 236 63 120 62 87 62 1303 0 1208 1
1179 -59 1297 -38 77 -119 166 -195 215 l-59 38 -1287 0 -1287 0 -59 -38z
m2548 -150 c77 -37 128 -90 167 -172 l26 -55 0 -1135 0 -1135 -27 -57 c-29
-62 -97 -136 -149 -164 -86 -44 -78 -44 -1219 -44 -1141 0 -1133 0 -1219 44
-52 28 -120 102 -149 164 l-27 57 0 1135 0 1135 23 49 c47 103 129 175 231
202 36 10 298 12 1161 11 l1115 -2 67 -33z"/>
<path d="M764 2940 c-165 -25 -281 -147 -305 -320 -6 -40 -9 -416 -7 -922 l3
-853 23 -57 c40 -100 110 -170 210 -210 l57 -23 905 0 905 0 57 23 c100 40
170 110 210 210 l23 57 0 905 0 905 -23 57 c-40 100 -110 170 -210 210 l-57
23 -870 1 c-478 1 -893 -2 -921 -6z m1047 -857 c35 -18 78 -46 94 -63 l30 -31
-55 -49 c-30 -27 -59 -49 -64 -50 -4 0 -22 12 -40 27 -43 36 -87 53 -140 53
-80 0 -136 -36 -136 -88 0 -49 34 -69 154 -92 129 -25 187 -47 227 -84 95 -90
90 -246 -10 -346 -56 -56 -130 -80 -242 -80 -126 0 -228 41 -304 120 l-30 32
60 53 59 53 46 -39 c57 -48 107 -69 164 -69 91 0 149 41 149 106 0 46 -39 69
-145 88 -144 26 -186 43 -238 96 -60 59 -78 120 -60 204 16 76 48 117 125 158
64 34 84 37 191 35 90 -2 107 -6 165 -34z"/>
</g>
</svg>
